<svg xmlns="http://www.w3.org/2000/svg" viewBox="0 0 1297.2 767.85"><defs><style>.cls-1{fill:#282828;}.cls-2{fill:#202020;}.cls-3{fill:#aaa;}</style></defs><g id="图层_2" data-name="图层 2"><g id="图层_1-2" data-name="图层 1"><path id="路径_1" data-name="路径 1" d="M1199.82,3.42l94,94.85a11.73,11.73,0,0,1,3.39,8.26V641.59a11.73,11.73,0,0,1-2.69,7.48L1199.9,763.64a11.53,11.53,0,0,1-8.9,4.21H105.57a11.53,11.53,0,0,1-8.19-3.42l-94-94.85A11.73,11.73,0,0,1,0,661.32V106.53a11.73,11.73,0,0,1,3.39-8.26l94-94.85A11.53,11.53,0,0,1,105.57,0H1191.63A11.53,11.53,0,0,1,1199.82,3.42Z"/><path id="路径_1-2" data-name="路径 1" class="cls-1" d="M1188.46,3.36l93.27,93.28a11.45,11.45,0,0,1,3.37,8.12V631.51a11.51,11.51,0,0,1-2.66,7.36l-93.9,112.67a11.47,11.47,0,0,1-8.82,4.13H116.86a11.52,11.52,0,0,1-8.13-3.36L15.46,659a11.52,11.52,0,0,1-3.36-8.12V104.76a11.48,11.48,0,0,1,3.36-8.12L108.73,3.36A11.52,11.52,0,0,1,116.86,0H1180.34A11.48,11.48,0,0,1,1188.46,3.36Z"/><circle id="椭圆_1-5" data-name="椭圆 1-5" class="cls-2" cx="122.25" cy="26.63" r="4.53"/><circle id="椭圆_1-5-2" data-name="椭圆 1-5" class="cls-3" cx="122.25" cy="26.63" r="4.08"/><path d="M118.09,25.69a4.17,4.17,0,0,0-.11.94,4.1,4.1,0,0,0,.11.94h8.31a3.61,3.61,0,0,0,.12-.94,3.67,3.67,0,0,0-.12-.94Z"/><circle id="椭圆_1-5-3" data-name="椭圆 1-5" class="cls-2" cx="43.48" cy="117.75" r="4.53"/><circle id="椭圆_1-5-4" data-name="椭圆 1-5" class="cls-3" cx="43.48" cy="117.75" r="4.08"/><path d="M39.32,116.81a4.17,4.17,0,0,0-.11.94,4.1,4.1,0,0,0,.11.94h8.31a3.61,3.61,0,0,0,.12-.94,3.67,3.67,0,0,0-.12-.94Z"/><circle id="椭圆_1-5-5" data-name="椭圆 1-5" class="cls-2" cx="1174.95" cy="26.63" r="4.53"/><circle id="椭圆_1-5-6" data-name="椭圆 1-5" class="cls-3" cx="1174.95" cy="26.63" r="4.08"/><path d="M1179.1,25.69a3.67,3.67,0,0,1,.12.94,3.61,3.61,0,0,1-.12.94h-8.31a4.1,4.1,0,0,1-.12-.94,4.17,4.17,0,0,1,.12-.94Z"/><circle id="椭圆_1-5-7" data-name="椭圆 1-5" class="cls-2" cx="1253.72" cy="117.75" r="4.53"/><circle id="椭圆_1-5-8" data-name="椭圆 1-5" class="cls-3" cx="1253.72" cy="117.75" r="4.08"/><path d="M1257.87,116.81a3.67,3.67,0,0,1,.12.94,3.61,3.61,0,0,1-.12.94h-8.31a4.1,4.1,0,0,1-.12-.94,4.17,4.17,0,0,1,.12-.94Z"/><circle id="椭圆_1-5-9" data-name="椭圆 1-5" class="cls-2" cx="122.25" cy="728.97" r="4.53"/><circle id="椭圆_1-5-10" data-name="椭圆 1-5" class="cls-3" cx="122.25" cy="728.97" r="4.08"/><path d="M118.09,729.91A4.1,4.1,0,0,1,118,729a4.17,4.17,0,0,1,.11-.94h8.31a3.67,3.67,0,0,1,.12.94,3.61,3.61,0,0,1-.12.94Z"/><circle id="椭圆_1-5-11" data-name="椭圆 1-5" class="cls-2" cx="43.48" cy="637.85" r="4.53"/><circle id="椭圆_1-5-12" data-name="椭圆 1-5" class="cls-3" cx="43.48" cy="637.85" r="4.08"/><path d="M39.32,638.8a4.26,4.26,0,0,1-.11-.95,4.17,4.17,0,0,1,.11-.94h8.31a3.67,3.67,0,0,1,.12.94,3.75,3.75,0,0,1-.12.95Z"/><circle id="椭圆_1-5-13" data-name="椭圆 1-5" class="cls-2" cx="1174.95" cy="728.97" r="4.53"/><circle id="椭圆_1-5-14" data-name="椭圆 1-5" class="cls-3" cx="1174.95" cy="728.97" r="4.08"/><path d="M1179.1,729.91a3.61,3.61,0,0,0,.12-.94,3.67,3.67,0,0,0-.12-.94h-8.31a4.17,4.17,0,0,0-.12.94,4.1,4.1,0,0,0,.12.94Z"/><circle id="椭圆_1-5-15" data-name="椭圆 1-5" class="cls-2" cx="1253.72" cy="637.85" r="4.53"/><circle id="椭圆_1-5-16" data-name="椭圆 1-5" class="cls-3" cx="1253.72" cy="637.85" r="4.08"/><path d="M1257.87,638.8a3.75,3.75,0,0,0,.12-.95,3.67,3.67,0,0,0-.12-.94h-8.31a4.17,4.17,0,0,0-.12.94,4.26,4.26,0,0,0,.12.95Z"/></g></g></svg>