<svg xmlns="http://www.w3.org/2000/svg" xmlns:xlink="http://www.w3.org/1999/xlink" viewBox="0 0 157 540.75"><defs><style>.cls-1{fill:#0f0f0f;}.cls-2{fill:url(#未命名的渐变_56);}.cls-3{fill:url(#未命名的渐变_220);}.cls-4{fill:url(#未命名的渐变_323);}.cls-5{fill:#7f7f7f;}.cls-6{fill:#ac2d1e;stroke-width:0.96px;}.cls-6,.cls-69,.cls-70{stroke:#000;}.cls-7{fill:#ad2e1f;}.cls-8{fill:#ae2f20;}.cls-9{fill:#af2f21;}.cls-10{fill:#af3022;}.cls-11{fill:#b03123;}.cls-12{fill:#b13224;}.cls-13{fill:#b23225;}.cls-14{fill:#b33326;}.cls-15{fill:#b43427;}.cls-16{fill:#b53528;}.cls-17{fill:#b53529;}.cls-18{fill:#b6362a;}.cls-19{fill:#b7372b;}.cls-20{fill:#b8382c;}.cls-21{fill:#b9392d;}.cls-22{fill:#ba392e;}.cls-23{fill:#ba3a2f;}.cls-24{fill:#bb3b30;}.cls-25{fill:#bc3c31;}.cls-26{fill:#bd3c32;}.cls-27{fill:#be3d33;}.cls-28{fill:#bf3e34;}.cls-29{fill:#c03f35;}.cls-30{fill:#c03f36;}.cls-31{fill:#c14037;}.cls-32{fill:#c24138;}.cls-33{fill:#c34239;}.cls-34{fill:#c4433a;}.cls-35{fill:#c5433b;}.cls-36{fill:#c6443c;}.cls-37{fill:#c6453c;}.cls-38{fill:#c7463d;}.cls-39{fill:#c8463e;}.cls-40{fill:#c9473f;}.cls-41{fill:#ca4840;}.cls-42{fill:#cb4941;}.cls-43{fill:#cc4a42;}.cls-44{fill:#cc4a43;}.cls-45{fill:#cd4b44;}.cls-46{fill:#ce4c45;}.cls-47{fill:#cf4d46;}.cls-48{fill:#d04d47;}.cls-49{fill:#d14e48;}.cls-50{fill:#d24f49;}.cls-51{fill:#d2504a;}.cls-52{fill:#d3504b;}.cls-53{fill:#d4514c;}.cls-54{fill:#d5524d;}.cls-55{fill:#d6534e;}.cls-56{fill:#d7544f;}.cls-57{fill:#d75450;}.cls-58{fill:#d85551;}.cls-59{fill:#d95652;}.cls-60{fill:#da5753;}.cls-61{fill:#db5754;}.cls-62{fill:#dc5855;}.cls-63{fill:#dd5956;}.cls-64{fill:#dd5a57;}.cls-65{fill:#de5a58;}.cls-66{fill:#df5b59;}.cls-67{fill:#e05c5a;}.cls-68,.cls-69,.cls-70{fill:none;}.cls-68{stroke:#7f7f7f;stroke-width:3px;}.cls-70{stroke-linecap:round;stroke-linejoin:round;}.cls-71{fill:#4c4c4c;}.cls-72{fill:#5b5b5b;}.cls-73{font-size:8.95px;fill:#601a03;font-family:Arial-BoldMT, Arial;font-weight:700;}</style><linearGradient id="未命名的渐变_56" x1="19.87" y1="537.33" x2="138.76" y2="-3.99" gradientUnits="userSpaceOnUse"><stop offset="0.1" stop-color="#444"/><stop offset="0.18" stop-color="#636363"/><stop offset="0.31" stop-color="#444"/><stop offset="0.47" stop-color="#616161"/><stop offset="0.49" stop-color="#707070"/><stop offset="0.71" stop-color="#505050"/><stop offset="0.76" stop-color="#565656"/><stop offset="0.89" stop-color="#606060"/></linearGradient><linearGradient id="未命名的渐变_220" x1="20.47" y1="534.6" x2="138.15" y2="-1.19" gradientUnits="userSpaceOnUse"><stop offset="0.1" stop-color="#797979"/><stop offset="0.18" stop-color="#b6b6b6"/><stop offset="0.31" stop-color="#797979"/><stop offset="0.34" stop-color="#878787"/><stop offset="0.47" stop-color="#b3b3b3"/><stop offset="0.49" stop-color="#d1d1d1"/><stop offset="0.58" stop-color="#b4b4b4"/><stop offset="0.71" stop-color="#909090"/><stop offset="0.81" stop-color="#a6a6a6"/><stop offset="0.89" stop-color="#b0b0b0"/></linearGradient><linearGradient id="未命名的渐变_323" x1="78.63" y1="496.96" x2="78.63" y2="41.17" gradientUnits="userSpaceOnUse"><stop offset="0" stop-color="#9a9a9a"/><stop offset="0.24" stop-color="#b6b6b6"/><stop offset="0.5" stop-color="#d1d1d1"/><stop offset="0.7" stop-color="#c3c3c3"/><stop offset="0.81" stop-color="#bababa"/><stop offset="1" stop-color="#b0b0b0"/></linearGradient></defs><g id="图层_2" data-name="图层 2"><g id="图层_1-2" data-name="图层 1"><rect id="矩形_25" data-name="矩形 25" class="cls-1" width="157" height="540.75" rx="5.11"/><rect class="cls-2" x="2.5" y="2.5" width="152" height="535.75" rx="4.36"/><rect id="矩形_25-2" data-name="矩形 25" class="cls-3" x="5" y="5" width="147" height="530.75" rx="3.61"/><path class="cls-4" d="M105.31,526.81l-5.58-11.17a1.53,1.53,0,0,0-1.35-.83H58.87a1.51,1.51,0,0,0-1.34.83l-5.59,11.17H29.49L17.37,514.69V27L29.49,14.84H51.94L57.53,26a1.49,1.49,0,0,0,1.34.83H98.38A1.51,1.51,0,0,0,99.73,26l5.58-11.17h22.45L139.88,27V514.69l-12.12,12.12Z"/><path class="cls-5" d="M127.14,16.34l11.25,11.24V514.07l-11.25,11.24h-20.9L101.07,515a3,3,0,0,0-2.68-1.66H58.87A3,3,0,0,0,56.19,515L51,525.31H30.11L18.87,514.07V27.58L30.11,16.34H51l5.18,10.34a3,3,0,0,0,2.68,1.66H98.39a3,3,0,0,0,2.68-1.66l5.17-10.34h20.9m1.25-3h-24l-6,12H58.87l-6-12h-24l-13,13v489l13,13h24l6-12H98.39l6,12h24l13-13v-489l-13-13Z"/><rect class="cls-6" x="29.46" y="41.65" width="100" height="24" rx="2"/><rect class="cls-7" x="29.49" y="41.69" width="99.93" height="23.93" rx="2.01"/><rect class="cls-8" x="29.52" y="41.72" width="99.87" height="23.87" rx="2.02"/><rect class="cls-9" x="29.55" y="41.75" width="99.8" height="23.8" rx="2.02"/><rect class="cls-10" x="29.58" y="41.78" width="99.74" height="23.74" rx="2.03"/><rect class="cls-11" x="29.61" y="41.82" width="99.67" height="23.67" rx="2.04"/><rect class="cls-12" x="29.64" y="41.85" width="99.61" height="23.61" rx="2.05"/><rect class="cls-13" x="29.67" y="41.88" width="99.54" height="23.54" rx="2.06"/><rect class="cls-14" x="29.7" y="41.91" width="99.48" height="23.48" rx="2.07"/><rect class="cls-15" x="29.73" y="41.95" width="99.41" height="23.41" rx="2.07"/><rect class="cls-16" x="29.76" y="41.98" width="99.34" height="23.34" rx="2.08"/><rect class="cls-17" x="29.79" y="42.01" width="99.28" height="23.28" rx="2.09"/><rect class="cls-18" x="29.82" y="42.05" width="99.21" height="23.21" rx="2.1"/><rect class="cls-19" x="29.85" y="42.08" width="99.15" height="23.15" rx="2.11"/><rect class="cls-20" x="29.88" y="42.11" width="99.08" height="23.08" rx="2.12"/><rect class="cls-21" x="29.91" y="42.14" width="99.02" height="23.02" rx="2.12"/><rect class="cls-22" x="29.94" y="42.18" width="98.95" height="22.95" rx="2.13"/><rect class="cls-23" x="29.97" y="42.21" width="98.89" height="22.89" rx="2.14"/><rect class="cls-24" x="30" y="42.24" width="98.82" height="22.82" rx="2.15"/><rect class="cls-25" x="30.03" y="42.28" width="98.75" height="22.75" rx="2.16"/><rect class="cls-26" x="30.06" y="42.31" width="98.69" height="22.69" rx="2.16"/><rect class="cls-27" x="30.09" y="42.34" width="98.62" height="22.62" rx="2.17"/><rect class="cls-28" x="30.12" y="42.37" width="98.56" height="22.56" rx="2.18"/><rect class="cls-29" x="30.15" y="42.41" width="98.49" height="22.49" rx="2.19"/><rect class="cls-30" x="30.18" y="42.44" width="98.43" height="22.43" rx="2.2"/><rect class="cls-31" x="30.21" y="42.47" width="98.36" height="22.36" rx="2.21"/><rect class="cls-32" x="30.24" y="42.51" width="98.3" height="22.3" rx="2.21"/><rect class="cls-33" x="30.27" y="42.54" width="98.23" height="22.23" rx="2.22"/><rect class="cls-34" x="30.3" y="42.57" width="98.16" height="22.16" rx="2.23"/><rect class="cls-35" x="30.33" y="42.6" width="98.1" height="22.1" rx="2.24"/><rect class="cls-36" x="30.36" y="42.64" width="98.03" height="22.03" rx="2.25"/><rect class="cls-37" x="30.39" y="42.67" width="97.97" height="21.97" rx="2.25"/><rect class="cls-38" x="30.42" y="42.7" width="97.9" height="21.9" rx="2.26"/><rect class="cls-39" x="30.45" y="42.73" width="97.84" height="21.84" rx="2.27"/><rect class="cls-40" x="30.48" y="42.77" width="97.77" height="21.77" rx="2.28"/><rect class="cls-41" x="30.51" y="42.8" width="97.7" height="21.7" rx="2.29"/><rect class="cls-42" x="30.54" y="42.83" width="97.64" height="21.64" rx="2.3"/><rect class="cls-43" x="30.57" y="42.87" width="97.57" height="21.57" rx="2.3"/><rect class="cls-44" x="30.6" y="42.9" width="97.51" height="21.51" rx="2.31"/><rect class="cls-45" x="30.63" y="42.93" width="97.44" height="21.44" rx="2.32"/><rect class="cls-46" x="30.66" y="42.96" width="97.38" height="21.38" rx="2.33"/><rect class="cls-47" x="30.69" y="43" width="97.31" height="21.31" rx="2.34"/><rect class="cls-48" x="30.72" y="43.03" width="97.25" height="21.25" rx="2.35"/><rect class="cls-49" x="30.75" y="43.06" width="97.18" height="21.18" rx="2.35"/><rect class="cls-50" x="30.78" y="43.1" width="97.11" height="21.11" rx="2.36"/><rect class="cls-51" x="30.81" y="43.13" width="97.05" height="21.05" rx="2.37"/><rect class="cls-52" x="30.84" y="43.16" width="96.98" height="20.98" rx="2.38"/><rect class="cls-53" x="30.87" y="43.19" width="96.92" height="20.92" rx="2.39"/><rect class="cls-54" x="30.9" y="43.23" width="96.85" height="20.85" rx="2.39"/><rect class="cls-55" x="30.93" y="43.26" width="96.79" height="20.79" rx="2.4"/><rect class="cls-56" x="30.96" y="43.29" width="96.72" height="20.72" rx="2.41"/><rect class="cls-57" x="30.99" y="43.32" width="96.66" height="20.66" rx="2.42"/><rect class="cls-58" x="31.02" y="43.36" width="96.59" height="20.59" rx="2.43"/><rect class="cls-59" x="31.05" y="43.39" width="96.52" height="20.52" rx="2.44"/><rect class="cls-60" x="31.08" y="43.42" width="96.46" height="20.46" rx="2.44"/><rect class="cls-61" x="31.11" y="43.46" width="96.39" height="20.39" rx="2.45"/><rect class="cls-62" x="31.14" y="43.49" width="96.33" height="20.33" rx="2.46"/><rect class="cls-63" x="31.17" y="43.52" width="96.26" height="20.26" rx="2.47"/><rect class="cls-64" x="31.2" y="43.55" width="96.2" height="20.2" rx="2.48"/><rect class="cls-65" x="31.23" y="43.59" width="96.13" height="20.13" rx="2.48"/><rect class="cls-66" x="31.26" y="43.62" width="96.07" height="20.07" rx="2.49"/><rect class="cls-67" x="31.29" y="43.65" width="96" height="20" rx="2.5"/><polyline class="cls-68" points="15.87 279.05 46.87 279.05 56.87 263.33 100.39 263.33 110.39 279.24 141.38 279.24"/><polyline class="cls-69" points="15.87 277.23 45.87 277.23 55.87 261.51 101.39 261.51 111.39 277.42 141.38 277.42"/><polygon class="cls-70" points="141.38 515.32 128.38 528.32 104.39 528.32 98.39 516.32 58.87 516.32 52.87 528.32 28.87 528.32 15.87 515.32 15.87 26.34 28.87 13.34 52.87 13.34 58.87 25.34 98.39 25.34 104.39 13.34 128.38 13.34 141.38 26.34 141.38 515.32"/><path class="cls-71" d="M5,77.12H9.55a1,1,0,0,1,1,1V89.81a1,1,0,0,1-1,1H5a0,0,0,0,1,0,0V77.12A0,0,0,0,1,5,77.12Z"/><path class="cls-71" d="M146.42,77.12H151a1,1,0,0,1,1,1V89.81a1,1,0,0,1-1,1h-4.55a0,0,0,0,1,0,0V77.12A0,0,0,0,1,146.42,77.12Z" transform="translate(298.42 167.96) rotate(180)"/><path class="cls-71" d="M5,430.84H9.55a1,1,0,0,1,1,1v11.66a1,1,0,0,1-1,1H5a0,0,0,0,1,0,0V430.84A0,0,0,0,1,5,430.84Z"/><path class="cls-71" d="M146.42,430.84H151a1,1,0,0,1,1,1v11.66a1,1,0,0,1-1,1h-4.55a0,0,0,0,1,0,0V430.84A0,0,0,0,1,146.42,430.84Z" transform="translate(298.42 875.38) rotate(180)"/><path class="cls-71" d="M5,100.21H9.55a1,1,0,0,1,1,1v11.66a1,1,0,0,1-1,1H5a0,0,0,0,1,0,0V100.21A0,0,0,0,1,5,100.21Z"/><path class="cls-71" d="M146.42,100.21H151a1,1,0,0,1,1,1v11.66a1,1,0,0,1-1,1h-4.55a0,0,0,0,1,0,0V100.21A0,0,0,0,1,146.42,100.21Z" transform="translate(298.42 214.12) rotate(180)"/><path class="cls-71" d="M5,453.92H9.55a1,1,0,0,1,1,1v11.66a1,1,0,0,1-1,1H5a0,0,0,0,1,0,0V453.92A0,0,0,0,1,5,453.92Z"/><path class="cls-71" d="M146.42,453.92H151a1,1,0,0,1,1,1v11.66a1,1,0,0,1-1,1h-4.55a0,0,0,0,1,0,0V453.92A0,0,0,0,1,146.42,453.92Z" transform="translate(298.42 921.55) rotate(180)"/><path class="cls-72" d="M5,75.12H9.55a1,1,0,0,1,1,1V87.81a1,1,0,0,1-1,1H5a0,0,0,0,1,0,0V75.12A0,0,0,0,1,5,75.12Z"/><path class="cls-72" d="M146.42,75.12H151a1,1,0,0,1,1,1V87.81a1,1,0,0,1-1,1h-4.55a0,0,0,0,1,0,0V75.12A0,0,0,0,1,146.42,75.12Z" transform="translate(298.42 163.96) rotate(180)"/><path class="cls-72" d="M5,428.84H9.55a1,1,0,0,1,1,1v11.66a1,1,0,0,1-1,1H5a0,0,0,0,1,0,0V428.84A0,0,0,0,1,5,428.84Z"/><path class="cls-72" d="M146.42,428.84H151a1,1,0,0,1,1,1v11.66a1,1,0,0,1-1,1h-4.55a0,0,0,0,1,0,0V428.84A0,0,0,0,1,146.42,428.84Z" transform="translate(298.42 871.38) rotate(180)"/><path class="cls-72" d="M5,98.21H9.55a1,1,0,0,1,1,1v11.66a1,1,0,0,1-1,1H5a0,0,0,0,1,0,0V98.21A0,0,0,0,1,5,98.21Z"/><path class="cls-72" d="M146.42,98.21H151a1,1,0,0,1,1,1v11.66a1,1,0,0,1-1,1h-4.55a0,0,0,0,1,0,0V98.21A0,0,0,0,1,146.42,98.21Z" transform="translate(298.42 210.12) rotate(180)"/><path class="cls-72" d="M5,451.92H9.55a1,1,0,0,1,1,1v11.66a1,1,0,0,1-1,1H5a0,0,0,0,1,0,0V451.92A0,0,0,0,1,5,451.92Z"/><path class="cls-72" d="M146.42,451.92H151a1,1,0,0,1,1,1v11.66a1,1,0,0,1-1,1h-4.55a0,0,0,0,1,0,0V451.92a0,0,0,0,1,0,0Z" transform="translate(298.42 917.55) rotate(180)"/><text class="cls-73" transform="translate(32.21 56.79)">PERMISSION DENIED</text></g></g></svg>