<svg xmlns="http://www.w3.org/2000/svg" xmlns:xlink="http://www.w3.org/1999/xlink" viewBox="0 0 128.76 40.76"><defs><style>.cls-1{fill:#3f3f3f;stroke-miterlimit:10;stroke-width:0.76px;}.cls-1,.cls-3{stroke:#000;}.cls-2{fill:url(#未命名的渐变_98);}.cls-3{stroke-linecap:round;stroke-linejoin:round;stroke-width:0.78px;fill:url(#未命名的渐变_115);}</style><linearGradient id="未命名的渐变_98" x1="76.88" y1="34.99" x2="76.88" y2="5.78" gradientUnits="userSpaceOnUse"><stop offset="0.21" stop-color="#fff"/><stop offset="0.65" stop-color="#ccc"/><stop offset="0.88" stop-color="#b6b6b6"/></linearGradient><linearGradient id="未命名的渐变_115" x1="15.91" y1="30.46" x2="21.34" y2="8.71" gradientUnits="userSpaceOnUse"><stop offset="0" stop-color="#981a07"/><stop offset="0.2" stop-color="#af2f21"/><stop offset="0.55" stop-color="#d3514b"/><stop offset="0.83" stop-color="#ea6565"/><stop offset="1" stop-color="#f26d6e"/></linearGradient></defs><g id="图层_2" data-name="图层 2"><g id="图层_1-2" data-name="图层 1"><rect id="矩形_32" data-name="矩形 32" class="cls-1" x="0.38" y="0.38" width="128" height="40" rx="4"/><rect class="cls-2" x="33.28" y="5.78" width="87.21" height="29.21" rx="1.61"/><path d="M118.88,6.17a1.21,1.21,0,0,1,1.21,1.21v26a1.21,1.21,0,0,1-1.21,1.21h-84a1.21,1.21,0,0,1-1.21-1.21v-26a1.21,1.21,0,0,1,1.21-1.21h84m0-.79h-84a2,2,0,0,0-2,2v26a2,2,0,0,0,2,2h84a2,2,0,0,0,2-2v-26a2,2,0,0,0-2-2Z"/><polygon class="cls-3" points="22.32 7.96 10.11 23.72 17.41 23.72 14.35 33.55 26.56 17.79 19.26 17.79 22.32 7.96"/></g></g></svg>