<svg xmlns="http://www.w3.org/2000/svg" xmlns:xlink="http://www.w3.org/1999/xlink" viewBox="0 0 212.72 64.72"><defs><style>.cls-1,.cls-2,.cls-3{fill:#3f3f3f;stroke:#000;stroke-miterlimit:10;}.cls-1{stroke-width:0.7px;}.cls-2{stroke-width:0.7px;}.cls-3{stroke-width:0.72px;}.cls-4{fill:#aaa;}.cls-5{stroke:#959595;stroke-width:0.18px;fill:url(#未命名的渐变_91);}.cls-6{fill:url(#未命名的渐变_98);}.cls-7{font-size:11.94px;fill:#fff;font-family:SourceHanSansCN-Bold-GBpc-EUC-H, Source Han Sans CN;}</style><linearGradient id="未命名的渐变_91" x1="78.07" y1="60.04" x2="159.89" y2="4.57" gradientUnits="userSpaceOnUse"><stop offset="0" stop-color="#8c8c8c"/><stop offset="0.09" stop-color="#6b6b6b"/><stop offset="0.27" stop-color="#2b2b2b"/><stop offset="0.36" stop-color="#121212"/></linearGradient><linearGradient id="未命名的渐变_98" x1="119.68" y1="49.93" x2="119.68" y2="13.72" gradientUnits="userSpaceOnUse"><stop offset="0.21" stop-color="#fff"/><stop offset="0.65" stop-color="#ccc"/><stop offset="0.88" stop-color="#b6b6b6"/></linearGradient></defs><g id="图层_2" data-name="图层 2"><g id="图层_1-2" data-name="图层 1"><rect id="矩形_22" data-name="矩形 22" class="cls-1" x="6.36" y="0.36" width="200" height="64"/><rect id="矩形_22-2" data-name="矩形 22" class="cls-2" x="5.86" y="0.36" width="201" height="64"/><rect id="矩形_22-3" data-name="矩形 22" class="cls-3" x="0.36" y="0.36" width="212" height="64" rx="4"/><circle id="椭圆_1-5" data-name="椭圆 1-5" cx="9.56" cy="10.22" r="3"/><circle id="椭圆_1-5-2" data-name="椭圆 1-5" class="cls-4" cx="9.56" cy="10.22" r="2.5"/><path d="M6.81,9.6a2.48,2.48,0,0,0,0,1.25h5.5a2.48,2.48,0,0,0,0-1.25Z"/><circle id="椭圆_1-5-3" data-name="椭圆 1-5" cx="9.56" cy="53.9" r="3"/><circle id="椭圆_1-5-4" data-name="椭圆 1-5" class="cls-4" cx="9.56" cy="53.9" r="2.5"/><path d="M6.81,53.28a2.57,2.57,0,0,0-.08.62,2.51,2.51,0,0,0,.08.62h5.5a2.51,2.51,0,0,0,.08-.62,2.57,2.57,0,0,0-.08-.62Z"/><circle id="椭圆_1-5-5" data-name="椭圆 1-5" cx="203.16" cy="10.22" r="3"/><circle id="椭圆_1-5-6" data-name="椭圆 1-5" class="cls-4" cx="203.16" cy="10.22" r="2.5"/><path d="M200.41,9.6a2.48,2.48,0,0,0,0,1.25h5.5a2.48,2.48,0,0,0,0-1.25Z"/><circle id="椭圆_1-5-7" data-name="椭圆 1-5" cx="203.16" cy="53.9" r="3"/><circle id="椭圆_1-5-8" data-name="椭圆 1-5" class="cls-4" cx="203.16" cy="53.9" r="2.5"/><path d="M200.41,53.28a2.57,2.57,0,0,0-.08.62,2.51,2.51,0,0,0,.08.62h5.5a2.51,2.51,0,0,0,.08-.62,2.57,2.57,0,0,0-.08-.62Z"/><rect class="cls-5" x="73.46" y="12.65" width="92.44" height="38.36" rx="1"/><rect class="cls-6" x="74.77" y="13.72" width="89.83" height="36.21" rx="0.65"/><path d="M164,14.08a.29.29,0,0,1,.3.29V49.29a.29.29,0,0,1-.3.29H75.41a.29.29,0,0,1-.29-.29V14.37a.29.29,0,0,1,.29-.29H164m0-.71H75.41a1,1,0,0,0-1,1V49.29a1,1,0,0,0,1,1H164a1,1,0,0,0,1-1V14.37a1,1,0,0,0-1-1Z"/><text class="cls-7" transform="translate(28.64 37.41)">探测</text><text class="cls-7" transform="translate(174.19 37.41)">年</text></g></g></svg>