<svg xmlns="http://www.w3.org/2000/svg" xmlns:xlink="http://www.w3.org/1999/xlink" viewBox="0 0 202.3 66"><defs><style>.cls-1{fill:none;}.cls-2{fill:#3f3f3f;stroke:#000;stroke-miterlimit:10;stroke-width:2px;}.cls-3{font-size:11.94px;fill:#fff;font-family:SourceHanSansCN-Bold-GBpc-EUC-H, Source Han Sans CN;}.cls-4{fill:url(#未命名的渐变_707);}.cls-5{fill:#333;}.cls-6{clip-path:url(#clip-path);}.cls-7{fill:#00847a;}.cls-8{fill:#01857b;}.cls-9{fill:#02867b;}.cls-10{fill:#03877c;}.cls-11{fill:#04887c;}.cls-12{fill:#05897d;}.cls-13{fill:#068a7d;}.cls-14{fill:#078b7e;}.cls-15{fill:#078c7e;}.cls-16{fill:#088d7f;}.cls-17{fill:#098e7f;}.cls-18{fill:#0a8f80;}.cls-19{fill:#0b9080;}.cls-20{fill:#0c9181;}.cls-21{fill:#0d9282;}.cls-22{fill:#0e9382;}.cls-23{fill:#0f9483;}.cls-24{fill:#109583;}.cls-25{fill:#119684;}.cls-26{fill:#129784;}.cls-27{fill:#139885;}.cls-28{fill:#149985;}.cls-29{fill:#159a86;}.cls-30{fill:#159b86;}.cls-31{fill:#169c87;}.cls-32{fill:#179d87;}.cls-33{fill:#189e88;}.cls-34{fill:#199f89;}.cls-35{fill:#1aa089;}.cls-36{fill:#1ba18a;}.cls-37{fill:#1ca28a;}.cls-38{fill:#1da38b;}.cls-39{fill:#1ea48b;}.cls-40{fill:#1fa58c;}.cls-41{fill:#20a68c;}.cls-42{fill:#21a78d;}.cls-43{fill:#22a88d;}.cls-44{fill:#23a98e;}.cls-45{fill:#23aa8e;}.cls-46{fill:#24ab8f;}.cls-47{fill:#25ac90;}.cls-48{fill:#26ad90;}.cls-49{fill:#27ae91;}.cls-50{fill:#28af91;}.cls-51{fill:#29b092;}.cls-52{fill:#2ab092;}.cls-53{fill:#2bb193;}.cls-54{fill:#2cb293;}.cls-55{fill:#2db394;}.cls-56{fill:#2eb494;}.cls-57{fill:#2fb595;}.cls-58{fill:#30b696;}.cls-59{fill:#30b796;}.cls-60{fill:#31b897;}.cls-61{fill:#32b997;}.cls-62{fill:#33ba98;}.cls-63{fill:#34bb98;}.cls-64{fill:#35bc99;}.cls-65{fill:#36bd99;}.cls-66{fill:#37be9a;}.cls-67{fill:#38bf9a;}.cls-68{fill:#39c09b;}.cls-69{fill:#3ac19b;}.cls-70{fill:#3bc29c;}.cls-71{fill:#3cc39d;}.cls-72{fill:#3dc49d;}.cls-73{fill:#3ec59e;}.cls-74{fill:#3ec69e;}.cls-75{fill:#3fc79f;}.cls-76{fill:#40c89f;}.cls-77{fill:#41c9a0;}.cls-78{fill:#42caa0;}.cls-79{fill:#43cba1;}.cls-80{fill:#44cca1;}.cls-81{fill:#45cda2;}.cls-82{fill:#46cea2;}.cls-83{fill:#47cfa3;}.cls-84{fill:#48d0a4;}.cls-85{fill:#49d1a4;}.cls-86{fill:#4ad2a5;}.cls-87{fill:#4bd3a5;}.cls-88{fill:#4cd4a6;}.cls-89{fill:#4cd5a6;}.cls-90{fill:#4dd6a7;}.cls-91{fill:#4ed7a7;}.cls-92{fill:#4fd8a8;}.cls-93{fill:#50d9a8;}.cls-94{fill:#51daa9;}.cls-95{fill:#52dba9;}.cls-96{fill:#53dcaa;}</style><linearGradient id="未命名的渐变_707" x1="101.15" y1="50.5" x2="101.15" y2="13.5" gradientUnits="userSpaceOnUse"><stop offset="0.21" stop-color="#fff"/><stop offset="0.44" stop-color="#cecece"/><stop offset="0.74" stop-color="#969696"/><stop offset="0.88" stop-color="gray"/></linearGradient><clipPath id="clip-path"><path class="cls-1" d="M194.33,33.58l-8.62,5.32a.7.7,0,0,1-1.06-.58V27.68a.7.7,0,0,1,1.06-.58l8.62,5.32A.68.68,0,0,1,194.33,33.58Z"/></clipPath></defs><g id="图层_2" data-name="图层 2"><g id="图层_1-2" data-name="图层 1"><rect id="矩形_22" data-name="矩形 22" class="cls-2" x="1" y="1" width="200.3" height="64" rx="7.74"/><text class="cls-3" transform="translate(21.71 37.01)">探测</text><text class="cls-3" transform="translate(155.68 37.01)">年</text><rect class="cls-4" x="56.65" y="13.5" width="89" height="37" rx="2.98"/><path class="cls-5" d="M142.68,14a2.48,2.48,0,0,1,2.47,2.48v31A2.48,2.48,0,0,1,142.68,50H59.63a2.48,2.48,0,0,1-2.48-2.48v-31A2.48,2.48,0,0,1,59.63,14h83.05m0-1H59.63a3.48,3.48,0,0,0-3.48,3.48v31A3.48,3.48,0,0,0,59.63,51h83.05a3.48,3.48,0,0,0,3.47-3.48v-31A3.48,3.48,0,0,0,142.68,13Z"/><g class="cls-6"><path class="cls-7" d="M194.33,33.58l-8.62,5.32a.7.7,0,0,1-1.06-.58V27.68a.7.7,0,0,1,1.06-.58l8.62,5.32A.68.68,0,0,1,194.33,33.58Z"/><path class="cls-8" d="M194.33,33.56l-8.55,5.25a.68.68,0,0,1-1-.57s0-10.54,0-10.53a.68.68,0,0,1,1.05-.57l8.52,5.28A.66.66,0,0,1,194.33,33.56Z"/><path class="cls-9" d="M194.33,33.55s-8.47,5.2-8.47,5.17a.68.68,0,0,1-1-.56s0-10.44.05-10.43a.68.68,0,0,1,1-.56s8.44,5.24,8.42,5.25A.66.66,0,0,1,194.33,33.55Z"/><path class="cls-10" d="M194.34,33.53s-8.41,5.14-8.41,5.1a.67.67,0,0,1-1-.56s0-10.34.08-10.32a.66.66,0,0,1,1-.55s8.36,5.2,8.33,5.22A.65.65,0,0,1,194.34,33.53Z"/><path class="cls-11" d="M194.34,33.52c-.05,0-8.34,5.08-8.34,5a.66.66,0,0,1-1-.55c0-.05.06-10.24.11-10.21a.66.66,0,0,1,1-.55s8.27,5.16,8.23,5.19A.65.65,0,0,1,194.34,33.52Z"/><path class="cls-12" d="M194.34,33.51c-.05,0-8.26,5-8.26,5a.66.66,0,0,1-1-.55c0-.06.07-10.14.13-10.11a.65.65,0,0,1,1-.54s8.18,5.13,8.13,5.16A.64.64,0,0,1,194.34,33.51Z"/><path class="cls-13" d="M194.34,33.49c-.06,0-8.19,5-8.19,4.88a.64.64,0,0,1-1-.54c0-.08.08-10,.15-10a.65.65,0,0,1,1-.54c.06,0,8.1,5.09,8,5.13A.62.62,0,0,1,194.34,33.49Z"/><path class="cls-14" d="M194.35,33.48c-.08.05-8.12,4.89-8.12,4.8a.64.64,0,0,1-1-.53c0-.09.1-9.95.18-9.9a.64.64,0,0,1,1-.53c.07.05,8,5,7.94,5.1A.62.62,0,0,1,194.35,33.48Z"/><path class="cls-15" d="M194.35,33.47c-.09.05-8,4.83-8,4.72a.62.62,0,0,1-1-.52c0-.11.11-9.85.2-9.79a.63.63,0,0,1,1-.53c.08,0,7.92,5,7.84,5.07A.62.62,0,0,1,194.35,33.47Z"/><path class="cls-16" d="M194.35,33.45c-.1.06-8,4.77-8,4.66a.62.62,0,0,1-1-.52c0-.12.13-9.75.24-9.69a.62.62,0,0,1,1-.52c.09.06,7.84,5,7.74,5A.6.6,0,0,1,194.35,33.45Z"/><path class="cls-17" d="M194.36,33.44c-.12.07-7.91,4.71-7.91,4.58a.62.62,0,0,1-.94-.51c0-.13.14-9.66.26-9.59a.62.62,0,0,1,.94-.51c.1.07,7.75,4.94,7.65,5A.61.61,0,0,1,194.36,33.44Z"/><path class="cls-18" d="M194.36,33.42c-.13.08-7.84,4.65-7.84,4.51a.61.61,0,0,1-.93-.51c0-.14.16-9.55.29-9.47a.61.61,0,0,1,.93-.51c.11.07,7.66,4.9,7.55,5A.59.59,0,0,1,194.36,33.42Z"/><path class="cls-19" d="M194.36,33.41c-.13.08-7.76,4.59-7.76,4.43a.6.6,0,0,1-.92-.5c0-.15.17-9.45.31-9.37a.6.6,0,0,1,.91-.5c.13.08,7.59,4.86,7.46,4.94A.59.59,0,0,1,194.36,33.41Z"/><path class="cls-20" d="M194.36,33.4c-.14.09-7.69,4.52-7.69,4.35a.58.58,0,0,1-.9-.49c0-.17.19-9.35.33-9.26a.59.59,0,0,1,.9-.5c.14.09,7.5,4.83,7.36,4.91A.58.58,0,0,1,194.36,33.4Z"/><path class="cls-21" d="M194.37,33.38c-.16.1-7.63,4.47-7.63,4.29a.58.58,0,0,1-.89-.49c0-.18.21-9.26.36-9.16a.59.59,0,0,1,.89-.49c.15.1,7.41,4.79,7.27,4.88A.57.57,0,0,1,194.37,33.38Z"/><path class="cls-22" d="M194.37,33.37c-.17.1-7.55,4.41-7.55,4.21a.57.57,0,0,1-.88-.48c0-.2.22-9.16.38-9.06a.57.57,0,0,1,.88-.47c.16.09,7.33,4.74,7.17,4.84A.56.56,0,0,1,194.37,33.37Z"/><path class="cls-23" d="M194.37,33.35c-.18.12-7.48,4.35-7.48,4.14A.57.57,0,0,1,186,37c0-.21.24-9.06.42-9a.56.56,0,0,1,.86-.47c.17.1,7.24,4.7,7.07,4.81A.54.54,0,0,1,194.37,33.35Z"/><path class="cls-24" d="M194.37,33.34c-.19.12-7.41,4.29-7.41,4.06a.55.55,0,0,1-.85-.46c0-.22.25-9,.44-8.85a.55.55,0,0,1,.85-.46c.18.11,7.15,4.67,7,4.78A.54.54,0,0,1,194.37,33.34Z"/><path class="cls-25" d="M194.38,33.33c-.2.12-7.34,4.22-7.34,4a.56.56,0,0,1-.85-.46c0-.24.27-8.87.47-8.74a.55.55,0,0,1,.84-.46c.19.11,7.07,4.63,6.88,4.75A.54.54,0,0,1,194.38,33.33Z"/><path class="cls-26" d="M194.38,33.31c-.21.13-7.27,4.17-7.27,3.92a.54.54,0,0,1-.83-.45c0-.25.28-8.77.49-8.64a.54.54,0,0,1,.83-.45c.2.12,7,4.59,6.78,4.72A.52.52,0,0,1,194.38,33.31Z"/><path class="cls-27" d="M194.38,33.3c-.22.14-7.19,4.1-7.19,3.84a.54.54,0,0,1-.83-.45c0-.26.3-8.66.52-8.52a.53.53,0,0,1,.82-.45c.21.13,6.89,4.55,6.68,4.69A.52.52,0,0,1,194.38,33.3Z"/><path class="cls-28" d="M194.39,33.29c-.24.14-7.13,4-7.13,3.76a.53.53,0,0,1-.81-.44c0-.27.31-8.57.54-8.42a.53.53,0,0,1,.81-.44c.22.14,6.81,4.52,6.59,4.65A.52.52,0,0,1,194.39,33.29Z"/><path class="cls-29" d="M194.39,33.27c-.25.15-7.06,4-7.06,3.7a.52.52,0,0,1-.79-.44c0-.29.32-8.47.56-8.32a.52.52,0,0,1,.8-.43c.23.14,6.72,4.48,6.49,4.62A.51.51,0,0,1,194.39,33.27Z"/><path class="cls-30" d="M194.39,33.26c-.26.16-7,3.92-7,3.62a.52.52,0,0,1-.79-.43c0-.3.34-8.37.6-8.21a.51.51,0,0,1,.78-.43c.24.15,6.63,4.44,6.39,4.59A.51.51,0,0,1,194.39,33.26Z"/><path class="cls-31" d="M194.39,33.24c-.27.17-6.91,3.86-6.91,3.55a.5.5,0,0,1-.77-.42c0-.31.35-8.27.62-8.11a.5.5,0,0,1,.77-.42c.25.16,6.55,4.41,6.29,4.56A.49.49,0,0,1,194.39,33.24Z"/><path class="cls-32" d="M194.4,33.23c-.28.17-6.85,3.8-6.85,3.47a.49.49,0,0,1-.76-.41c0-.33.37-8.18.65-8a.5.5,0,0,1,.76-.42c.26.17,6.46,4.37,6.2,4.53A.49.49,0,0,1,194.4,33.23Z"/><path class="cls-33" d="M194.4,33.22c-.29.18-6.77,3.73-6.77,3.39a.48.48,0,0,1-.75-.4c0-.34.38-8.08.67-7.9a.49.49,0,0,1,.75-.41c.27.17,6.37,4.33,6.1,4.5A.48.48,0,0,1,194.4,33.22Z"/><path class="cls-34" d="M194.4,33.2c-.3.19-6.7,3.68-6.7,3.33a.49.49,0,0,1-.74-.4c0-.36.4-8,.7-7.79a.49.49,0,0,1,.74-.41c.28.18,6.29,4.29,6,4.47A.47.47,0,0,1,194.4,33.2Z"/><path class="cls-35" d="M194.4,33.19c-.31.19-6.62,3.61-6.62,3.25a.48.48,0,0,1-.73-.4c0-.36.41-7.87.72-7.68a.48.48,0,0,1,.73-.4c.29.19,6.2,4.26,5.9,4.44A.46.46,0,0,1,194.4,33.19Z"/><path class="cls-36" d="M194.41,33.17c-.33.21-6.56,3.56-6.56,3.18a.46.46,0,0,1-.71-.39c0-.38.42-7.78.74-7.58a.47.47,0,0,1,.72-.38c.3.18,6.11,4.21,5.81,4.4A.45.45,0,0,1,194.41,33.17Z"/><path class="cls-37" d="M194.41,33.16c-.34.21-6.49,3.5-6.49,3.1a.46.46,0,0,1-.7-.38c0-.39.44-7.68.78-7.47a.45.45,0,0,1,.7-.38c.31.19,6,4.17,5.71,4.37A.44.44,0,0,1,194.41,33.16Z"/><path class="cls-38" d="M194.41,33.15c-.34.21-6.41,3.43-6.41,3a.45.45,0,0,1-.69-.38c0-.4.45-7.58.8-7.37a.45.45,0,0,1,.69-.37c.32.2,5.94,4.13,5.61,4.33A.45.45,0,0,1,194.41,33.15Z"/><path class="cls-39" d="M194.42,33.13c-.36.22-6.35,3.38-6.35,3a.45.45,0,0,1-.68-.37c0-.42.47-7.49.83-7.26a.44.44,0,0,1,.68-.37c.33.21,5.85,4.1,5.52,4.3A.44.44,0,0,1,194.42,33.13Z"/><path class="cls-40" d="M194.42,33.12c-.37.23-6.28,3.31-6.28,2.88a.43.43,0,0,1-.66-.36c0-.43.48-7.39.85-7.16a.44.44,0,0,1,.67-.36c.34.21,5.77,4.06,5.42,4.27A.43.43,0,0,1,194.42,33.12Z"/><path class="cls-41" d="M194.42,33.1c-.38.24-6.2,3.26-6.2,2.81a.43.43,0,0,1-.66-.35c0-.45.5-7.29.88-7a.43.43,0,0,1,.66-.36c.35.22,5.68,4,5.32,4.24A.41.41,0,0,1,194.42,33.1Z"/><path class="cls-42" d="M194.42,33.09c-.39.24-6.13,3.19-6.13,2.74a.42.42,0,0,1-.64-.35c0-.46.51-7.19.9-6.95a.42.42,0,0,1,.65-.35c.36.23,5.59,4,5.22,4.21A.4.4,0,0,1,194.42,33.09Z"/><path class="cls-43" d="M194.43,33.08c-.41.25-6.06,3.13-6.06,2.66a.41.41,0,0,1-.63-.35c0-.47.52-7.09.92-6.84a.41.41,0,0,1,.63-.34c.38.23,5.52,3.95,5.14,4.18A.41.41,0,0,1,194.43,33.08Z"/><path class="cls-44" d="M194.43,33.06c-.42.26-6,3.07-6,2.59a.4.4,0,0,1-.62-.34c0-.48.54-7,1-6.73a.4.4,0,0,1,.61-.34c.39.24,5.43,3.91,5,4.15A.39.39,0,0,1,194.43,33.06Z"/><path class="cls-45" d="M194.43,33.05c-.42.26-5.92,3-5.92,2.51a.39.39,0,0,1-.6-.33c0-.49.55-6.89,1-6.63a.39.39,0,0,1,.6-.33c.4.25,5.34,3.87,4.94,4.12A.38.38,0,0,1,194.43,33.05Z"/><path class="cls-46" d="M194.44,33c-.44.27-5.85,2.94-5.85,2.43a.39.39,0,0,1-.6-.32c0-.51.57-6.79,1-6.52a.39.39,0,0,1,.59-.33c.41.26,5.26,3.83,4.85,4.09A.38.38,0,0,1,194.44,33Z"/><path class="cls-47" d="M194.44,33c-.45.28-5.78,2.89-5.78,2.37a.38.38,0,0,1-.58-.32c0-.52.58-6.7,1-6.42a.38.38,0,0,1,.58-.32c.42.26,5.17,3.8,4.75,4.06A.37.37,0,0,1,194.44,33Z"/><path class="cls-48" d="M194.44,33c-.46.28-5.71,2.82-5.71,2.29a.37.37,0,0,1-.57-.31c0-.54.6-6.6,1.06-6.32a.38.38,0,0,1,.57-.31c.43.27,5.08,3.76,4.65,4A.36.36,0,0,1,194.44,33Z"/><path class="cls-49" d="M194.44,33c-.47.29-5.63,2.77-5.63,2.22a.37.37,0,0,1-.56-.3c0-.55.61-6.5,1.08-6.21a.37.37,0,0,1,.56-.31c.45.28,5,3.72,4.55,4A.36.36,0,0,1,194.44,33Z"/><path class="cls-50" d="M194.45,33c-.49.3-5.57,2.7-5.57,2.14a.35.35,0,0,1-.54-.29c0-.57.62-6.4,1.11-6.11a.35.35,0,0,1,.54-.29c.46.27,4.91,3.67,4.46,4A.36.36,0,0,1,194.45,33Z"/><path class="cls-51" d="M194.45,33c-.5.3-5.49,2.64-5.49,2.07a.36.36,0,0,1-.54-.3c0-.57.64-6.3,1.14-6a.34.34,0,0,1,.53-.29c.47.28,4.82,3.64,4.36,3.92A.35.35,0,0,1,194.45,33Z"/><path class="cls-52" d="M194.45,33c-.5.31-5.42,2.59-5.42,2a.34.34,0,0,1-.52-.29c0-.58.65-6.2,1.16-5.89a.34.34,0,0,1,.52-.28c.48.29,4.74,3.6,4.26,3.89A.33.33,0,0,1,194.45,33Z"/><path class="cls-53" d="M194.45,32.94c-.51.32-5.35,2.52-5.35,1.92a.33.33,0,0,1-.51-.28c0-.6.67-6.1,1.19-5.78a.33.33,0,0,1,.51-.28c.49.3,4.65,3.56,4.16,3.86A.33.33,0,0,1,194.45,32.94Z"/><path class="cls-54" d="M194.46,32.92c-.53.33-5.28,2.47-5.28,1.85a.32.32,0,0,1-.5-.27c0-.61.68-6,1.21-5.68a.32.32,0,0,1,.5-.27c.5.3,4.56,3.52,4.07,3.83A.32.32,0,0,1,194.46,32.92Z"/><path class="cls-55" d="M194.46,32.91c-.54.33-5.21,2.4-5.21,1.78a.32.32,0,0,1-.49-.27c0-.63.7-5.91,1.24-5.58a.32.32,0,0,1,.49-.26c.51.31,4.48,3.49,4,3.8A.31.31,0,0,1,194.46,32.91Z"/><path class="cls-56" d="M194.46,32.9c-.55.34-5.14,2.34-5.14,1.7a.31.31,0,0,1-.47-.26c0-.64.71-5.81,1.26-5.47a.31.31,0,0,1,.48-.26c.52.32,4.39,3.45,3.87,3.77A.3.3,0,0,1,194.46,32.9Z"/><path class="cls-57" d="M194.47,32.88c-.57.35-5.07,2.28-5.07,1.63a.31.31,0,0,1-.47-.25c0-.66.73-5.71,1.3-5.37a.3.3,0,0,1,.46-.25c.53.33,4.3,3.41,3.78,3.74A.3.3,0,0,1,194.47,32.88Z"/><path class="cls-58" d="M194.47,32.87c-.57.35-5,2.22-5,1.55a.3.3,0,0,1-.45-.24c0-.67.74-5.62,1.32-5.26a.29.29,0,0,1,.45-.25c.54.33,4.22,3.37,3.68,3.71A.29.29,0,0,1,194.47,32.87Z"/><path class="cls-59" d="M194.47,32.85c-.58.37-4.92,2.16-4.92,1.48a.28.28,0,0,1-.44-.24c0-.67.75-5.51,1.34-5.15a.29.29,0,0,1,.44-.24c.55.34,4.13,3.34,3.58,3.68A.27.27,0,0,1,194.47,32.85Z"/><path class="cls-60" d="M194.47,32.84c-.59.37-4.85,2.1-4.85,1.41a.28.28,0,0,1-.43-.24c0-.69.77-5.41,1.37-5a.28.28,0,0,1,.43-.24c.56.35,4,3.3,3.48,3.64A.27.27,0,0,1,194.47,32.84Z"/><path class="cls-61" d="M194.48,32.83c-.61.37-4.79,2-4.79,1.33a.27.27,0,0,1-.41-.23c0-.7.78-5.31,1.39-4.94a.28.28,0,0,1,.42-.23c.57.35,4,3.26,3.39,3.61A.27.27,0,0,1,194.48,32.83Z"/><path class="cls-62" d="M194.48,32.81c-.62.38-4.71,2-4.71,1.26a.27.27,0,0,1-.41-.22c0-.72.81-5.22,1.42-4.84a.27.27,0,0,1,.41-.22c.58.36,3.87,3.22,3.29,3.58A.26.26,0,0,1,194.48,32.81Z"/><path class="cls-63" d="M194.48,32.8c-.63.39-4.64,1.91-4.64,1.18a.25.25,0,0,1-.39-.21c0-.73.82-5.12,1.44-4.73a.27.27,0,0,1,.4-.22c.59.37,3.78,3.19,3.19,3.55A.25.25,0,0,1,194.48,32.8Z"/><path class="cls-64" d="M194.48,32.79c-.64.39-4.57,1.85-4.57,1.11a.25.25,0,0,1-.38-.21c0-.75.84-5,1.48-4.63a.25.25,0,0,1,.38-.21c.6.38,3.7,3.15,3.09,3.52A.24.24,0,0,1,194.48,32.79Z"/><path class="cls-65" d="M194.49,32.77c-.65.4-4.5,1.8-4.5,1a.24.24,0,0,1-.37-.2c0-.76.85-4.93,1.5-4.52a.24.24,0,0,1,.37-.2c.61.37,3.61,3.1,3,3.48A.23.23,0,0,1,194.49,32.77Z"/><path class="cls-66" d="M194.49,32.76c-.66.41-4.43,1.73-4.43,1a.23.23,0,0,1-.35-.19c0-.77.86-4.83,1.52-4.42a.23.23,0,0,1,.36-.19c.62.38,3.52,3.07,2.9,3.45A.23.23,0,0,1,194.49,32.76Z"/><path class="cls-67" d="M194.49,32.74c-.67.42-4.35,1.68-4.35.89a.23.23,0,0,1-.35-.19c0-.78.88-4.72,1.55-4.31a.22.22,0,0,1,.34-.18c.64.39,3.45,3,2.81,3.42A.22.22,0,0,1,194.49,32.74Z"/><path class="cls-68" d="M194.5,32.73c-.69.42-4.29,1.61-4.29.82a.22.22,0,0,1-.33-.19c0-.79.89-4.62,1.57-4.2a.21.21,0,0,1,.33-.18c.65.39,3.36,3,2.72,3.39A.21.21,0,0,1,194.5,32.73Z"/><path class="cls-69" d="M194.5,32.72c-.7.43-4.22,1.55-4.22.74a.21.21,0,0,1-.32-.18c0-.81.91-4.53,1.6-4.1a.21.21,0,0,1,.32-.17c.66.4,3.27,2.95,2.62,3.36A.21.21,0,0,1,194.5,32.72Z"/><path class="cls-70" d="M194.5,32.7c-.71.44-4.14,1.49-4.14.67a.2.2,0,0,1-.31-.17c0-.82.92-4.43,1.62-4A.2.2,0,0,1,192,29c.67.41,3.19,2.92,2.52,3.33A.19.19,0,0,1,194.5,32.7Z"/><path class="cls-71" d="M194.5,32.69c-.71.44-4.07,1.43-4.07.59a.2.2,0,0,1-.3-.16c0-.84.94-4.33,1.66-3.89a.19.19,0,0,1,.29-.16c.68.42,3.1,2.88,2.42,3.29A.19.19,0,0,1,194.5,32.69Z"/><path class="cls-72" d="M194.51,32.67c-.73.45-4,1.37-4,.52a.18.18,0,0,1-.28-.15c0-.85.95-4.23,1.68-3.78a.18.18,0,0,1,.28-.16c.69.42,3,2.84,2.33,3.26A.19.19,0,0,1,194.51,32.67Z"/><path class="cls-73" d="M194.51,32.66c-.74.46-3.93,1.31-3.93.45a.18.18,0,0,1-.27-.15c0-.86,1-4.14,1.7-3.68a.18.18,0,0,1,.27-.15c.7.43,2.93,2.8,2.23,3.23A.18.18,0,0,1,194.51,32.66Z"/><path class="cls-74" d="M194.51,32.65c-.75.46-3.86,1.24-3.86.37a.17.17,0,0,1-.26-.14c0-.88,1-4,1.73-3.58a.17.17,0,0,1,.26-.14c.71.44,2.84,2.77,2.13,3.2A.17.17,0,0,1,194.51,32.65Z"/><path class="cls-75" d="M194.51,32.63c-.76.47-3.78,1.19-3.78.3a.16.16,0,0,1-.25-.13c0-.89,1-3.94,1.75-3.47a.17.17,0,0,1,.25-.14c.72.44,2.75,2.73,2,3.17A.15.15,0,0,1,194.51,32.63Z"/><path class="cls-76" d="M194.52,32.62c-.78.48-3.72,1.12-3.72.22a.16.16,0,0,1-.24-.13c0-.9,1-3.84,1.78-3.36a.16.16,0,0,1,.24-.13c.73.45,2.67,2.69,1.94,3.14A.16.16,0,0,1,194.52,32.62Z"/><path class="cls-77" d="M194.52,32.61c-.79.48-3.65,1.06-3.65.15a.15.15,0,0,1-.22-.13c0-.91,1-3.74,1.8-3.25a.15.15,0,0,1,.23-.13c.74.46,2.58,2.65,1.84,3.11A.15.15,0,0,1,194.52,32.61Z"/><path class="cls-78" d="M194.52,32.59c-.79.49-3.57,1-3.57.08a.14.14,0,0,1-.22-.12c0-.93,1-3.64,1.84-3.15a.14.14,0,0,1,.21-.12c.75.47,2.49,2.62,1.74,3.08A.13.13,0,0,1,194.52,32.59Z"/><path class="cls-79" d="M194.53,32.58c-.81.5-3.51.94-3.51,0a.13.13,0,0,1-.2-.11c0-.94,1.05-3.54,1.86-3a.13.13,0,0,1,.2-.11c.76.46,2.41,2.57,1.65,3A.13.13,0,0,1,194.53,32.58Z"/><path class="cls-80" d="M194.53,32.56c-.82.51-3.44.89-3.44-.07a.12.12,0,0,1-.19-.1c0-.95,1.07-3.45,1.89-2.94a.12.12,0,0,1,.19-.1c.77.47,2.32,2.53,1.55,3A.11.11,0,0,1,194.53,32.56Z"/><path class="cls-81" d="M194.53,32.55c-.83.51-3.36.82-3.36-.15a.11.11,0,0,1-.18-.09c0-1,1.08-3.35,1.91-2.84a.11.11,0,0,1,.18-.09c.78.48,2.23,2.49,1.45,3A.11.11,0,0,1,194.53,32.55Z"/><path class="cls-82" d="M194.53,32.54c-.84.52-3.29.76-3.29-.22a.11.11,0,0,1-.16-.09c0-1,1.09-3.25,1.93-2.73a.11.11,0,0,1,.17-.09c.79.49,2.14,2.46,1.35,2.94A.11.11,0,0,1,194.53,32.54Z"/><path class="cls-83" d="M194.54,32.52c-.86.53-3.22.7-3.22-.29a.11.11,0,0,1-.16-.08c0-1,1.11-3.15,2-2.63a.1.1,0,0,1,.16-.08c.8.49,2.06,2.42,1.26,2.91A.1.1,0,0,1,194.54,32.52Z"/><path class="cls-84" d="M194.54,32.51c-.86.53-3.15.64-3.15-.37a.09.09,0,0,1-.14-.08c0-1,1.12-3.05,2-2.51a.09.09,0,0,1,.14-.08c.81.5,2,2.38,1.16,2.88A.09.09,0,0,1,194.54,32.51Z"/><path class="cls-85" d="M194.54,32.49c-.87.54-3.08.58-3.08-.44a.08.08,0,0,1-.13-.07c0-1,1.14-2.95,2-2.41a.08.08,0,0,1,.13-.07c.82.51,1.88,2.34,1.06,2.85A.08.08,0,0,1,194.54,32.49Z"/><path class="cls-86" d="M194.55,32.48c-.89.55-3,.52-3-.51a.08.08,0,0,1-.12-.07c0-1,1.15-2.85,2-2.3a.08.08,0,0,1,.12-.07c.83.51,1.8,2.31,1,2.82A.09.09,0,0,1,194.55,32.48Z"/><path class="cls-87" d="M194.55,32.47c-.9.55-2.94.45-2.94-.59a.07.07,0,0,1-.11-.06c0-1,1.17-2.76,2.07-2.2a.07.07,0,0,1,.11-.06c.84.52,1.71,2.27.87,2.79A.08.08,0,0,1,194.55,32.47Z"/><path class="cls-88" d="M194.55,32.45c-.91.56-2.86.4-2.86-.66a.06.06,0,0,1-.1-.05c0-1.06,1.18-2.66,2.09-2.1a.07.07,0,0,1,.1-.05c.85.53,1.62,2.23.77,2.76A.06.06,0,0,1,194.55,32.45Z"/><path class="cls-89" d="M194.55,32.44c-.92.57-2.79.33-2.79-.74a0,0,0,0,1-.08,0c0-1.07,1.19-2.56,2.11-2a.06.06,0,0,1,.09-.05c.86.54,1.54,2.19.67,2.73A0,0,0,0,1,194.55,32.44Z"/><path class="cls-90" d="M194.56,32.42c-.94.58-2.73.28-2.73-.8,0,0-.07,0-.07,0,0-1.09,1.21-2.46,2.14-1.89a.05.05,0,0,1,.08,0c.87.54,1.45,2.16.58,2.7C194.59,32.37,194.59,32.41,194.56,32.42Z"/><path class="cls-91" d="M194.56,32.41c-.94.58-2.65.21-2.65-.88,0,0-.06,0-.06,0,0-1.1,1.22-2.37,2.17-1.78,0,0,0,0,0,0,.89.55,1.37,2.12.49,2.67A0,0,0,0,1,194.56,32.41Z"/><path class="cls-92" d="M194.56,32.4c-.95.59-2.58.15-2.58-1a0,0,0,0,1,0,0c0-1.1,1.24-2.26,2.2-1.67,0,0,0,0,0,0,.9.56,1.29,2.08.39,2.64A0,0,0,0,1,194.56,32.4Z"/><path class="cls-93" d="M194.56,32.38c-1,.6-2.51.09-2.51-1,0,0,0,0,0,0,0-1.12,1.25-2.16,2.22-1.57a0,0,0,0,1,0,0c.91.55,1.2,2,.29,2.59A0,0,0,0,1,194.56,32.38Z"/><path class="cls-94" d="M194.57,32.37a1.58,1.58,0,0,1-2.44-1.11,0,0,0,0,1,0,0,1.58,1.58,0,0,1,2.25-1.46s0,0,0,0a1.55,1.55,0,0,1,.2,2.56A0,0,0,0,1,194.57,32.37Z"/><path class="cls-95" d="M194.57,32.36a1.54,1.54,0,0,1-2.37-1.18h0a1.53,1.53,0,0,1,2.27-1.36h0a1.5,1.5,0,0,1,.1,2.53Z"/><path class="cls-96" d="M194.57,32.34h0a1.49,1.49,0,0,1-2.29-1.25h0a1.49,1.49,0,0,1,2.29-1.25h0A1.46,1.46,0,0,1,194.57,32.34Z"/></g></g></g></svg>