<svg xmlns="http://www.w3.org/2000/svg" xmlns:xlink="http://www.w3.org/1999/xlink" viewBox="0 0 202 66"><defs><style>.cls-1{fill:#3f3f3f;stroke:#000;stroke-miterlimit:10;stroke-width:2px;}.cls-2{font-size:11.94px;fill:#fff;font-family:SourceHanSansCN-Bold-GBpc-EUC-H, Source Han Sans CN;}.cls-3{fill:url(#未命名的渐变_707);}.cls-4{fill:#333;}.cls-5{fill:url(#未命名的渐变_12);}</style><linearGradient id="未命名的渐变_707" x1="101" y1="50.5" x2="101" y2="13.5" gradientUnits="userSpaceOnUse"><stop offset="0.21" stop-color="#fff"/><stop offset="0.44" stop-color="#cecece"/><stop offset="0.74" stop-color="#969696"/><stop offset="0.88" stop-color="gray"/></linearGradient><radialGradient id="未命名的渐变_12" cx="190.27" cy="31.62" r="8.02" gradientUnits="userSpaceOnUse"><stop offset="0" stop-color="#53dcaa"/><stop offset="1" stop-color="#00847a"/></radialGradient></defs><g id="图层_2" data-name="图层 2"><g id="图层_1-2" data-name="图层 1"><path id="矩形_22" data-name="矩形 22" class="cls-1" d="M201,8.74V57.26A7.74,7.74,0,0,1,193.27,65H8.73A7.74,7.74,0,0,1,1,57.26V8.74A7.74,7.74,0,0,1,8.73,1H193.27A7.74,7.74,0,0,1,201,8.74Z"/><text class="cls-2" transform="translate(21.56 37.01)">探测</text><text class="cls-2" transform="translate(155.53 37.01)">年</text><rect class="cls-3" x="56.5" y="13.5" width="89" height="37" rx="2.98"/><path class="cls-4" d="M142.52,14A2.48,2.48,0,0,1,145,16.48v31A2.48,2.48,0,0,1,142.52,50h-83A2.48,2.48,0,0,1,57,47.52v-31A2.48,2.48,0,0,1,59.48,14h83m0-1h-83A3.48,3.48,0,0,0,56,16.48v31A3.48,3.48,0,0,0,59.48,51h83A3.48,3.48,0,0,0,146,47.52v-31A3.48,3.48,0,0,0,142.52,13Z"/><path class="cls-5" d="M194.18,33.58l-8.62,5.32a.7.7,0,0,1-1.06-.58V27.68a.7.7,0,0,1,1.06-.58l8.62,5.32A.68.68,0,0,1,194.18,33.58Z"/></g></g></svg>