<svg xmlns="http://www.w3.org/2000/svg" viewBox="0 0 76.41 60.06"><g id="图层_2" data-name="图层 2"><g id="图层_1-2" data-name="图层 1"><path d="M44.26,45.77c0,.66-.07,1.26-.08,1.72,0,.92-.06,1.84-.08,2.76h1.31c2.25,0,5-.73,5-2.38C50.45,46.77,48.39,46,44.26,45.77Z"/><path d="M44.64,38.79c-.06,1.14-.14,2.51-.21,3.86,4.77.11,6.12-.83,6.12-1.88C50.55,39.41,47.62,38.89,44.64,38.79Z"/><path d="M71.54,44.81a6.08,6.08,0,0,0-3.65,1.38c-.58.42-.68.47-1,.47-.63,0-1.16-.11-1.16-1.45s.36-2.86,2-2.86a2.05,2.05,0,0,1,1.07.27,6.57,6.57,0,0,0,2.9.73,4.66,4.66,0,0,0,4.67-4.76c0-2.72-2.88-7.74-9.76-8,.07-.79.11-1.59.11-2.41A28.22,28.22,0,0,0,51.83,3.32h0L49.1,8,50.73,9l.83-1.44a24.43,24.43,0,0,1,7.65,7.66L57.78,16l.94,1.64,1.44-.83A24.39,24.39,0,0,1,63,27.28H61.3v1.89H63c0,.62-.07,1.23-.14,1.84a13.36,13.36,0,0,0-5.88,3,1.18,1.18,0,0,1-1.52-.12,12,12,0,0,0-4.68-2.37V29.17H45.23l4-5.26A7.24,7.24,0,0,0,50,16.36a6.62,6.62,0,0,0-6.1-3.7c-5.33,0-7.62,4.27-7.62,8.37h5c0-1.38.87-3.37,2.62-3.37a1.75,1.75,0,0,1,1.84,1.83,2.43,2.43,0,0,1-.45,1.38L37,31.68a11.28,11.28,0,0,0-3-.89V13.22H27.31v5H29V30.9a13.71,13.71,0,0,0-5.66,2.54A1.06,1.06,0,0,1,22,33.38a10.68,10.68,0,0,0-7.64-2.77h-.16c-.05-.48-.08-1-.1-1.45h1.66V27.28H14.11a24.4,24.4,0,0,1,2.8-10.45l1.44.83L19.29,16l-1.43-.82a24.43,24.43,0,0,1,7.65-7.66L26.34,9,28,8,27.14,6.6a24.25,24.25,0,0,1,9.51-2.74V7.42h3.77V0H38.53A28.24,28.24,0,0,0,10.46,31.15C4.22,32.87,0,38.7,0,46.28c0,9.47,6.34,13.78,12.22,13.78a12.46,12.46,0,0,0,8.15-3,1.14,1.14,0,0,1,1.48,0,11.85,11.85,0,0,0,7.91,3,12.24,12.24,0,0,0,6.74-2,1.13,1.13,0,0,1,1.34.1,8.26,8.26,0,0,0,5.44,1.88c5.23,0,9.2-.91,11.8-2.71a1.17,1.17,0,0,1,1.44,0A11.92,11.92,0,0,0,64,60.06c6.93,0,10.46-5.38,11.1-6.46a7.8,7.8,0,0,0,1-3.79A4.72,4.72,0,0,0,71.54,44.81ZM15.08,50.25c2.56,0,3.29-1.85,4.64-1.85.58,0,1,.52,1,1.41a4.27,4.27,0,0,1-.53,2,9.54,9.54,0,0,1-8,4.7c-3.78,0-8.63-2.64-8.63-10.19S8.52,34.2,14.37,34.2c5.32,0,6.62,3.7,6.62,4.39a1.05,1.05,0,0,1-1.07,1.17c-1.25,0-1.79-1-4-1-3.2,0-5.62,2.36-5.62,6.46C10.33,48.94,12.93,50.25,15.08,50.25Zm17.54,0c2.56,0,3.29-1.85,4.64-1.85.58,0,1,.52,1,1.41a4.27,4.27,0,0,1-.53,2,9.53,9.53,0,0,1-8,4.7c-3.78,0-8.63-2.64-8.63-10.19S26.06,34.2,31.91,34.2c5.32,0,6.62,3.7,6.62,4.39a1.05,1.05,0,0,1-1.07,1.17c-1.25,0-1.79-1-4-1-3.19,0-5.62,2.36-5.62,6.46C27.87,48.94,30.47,50.25,32.62,50.25Zm10.66,6.22c-2.49,0-4.5-1.45-4.5-4.27a110.45,110.45,0,0,1,1.71-15.8c.33-1.81,1.46-2.2,2.12-2.2,3.22,0,11.9,0,11.9,5.82,0,2-1.32,3.53-3.46,4.43,2.51,1,4.31,2.89,4.1,6.25C54.93,54.28,51.23,56.47,43.28,56.47Zm28.77-4.7a9.53,9.53,0,0,1-8,4.7c-3.78,0-8.63-2.64-8.63-10.19S60.34,34.2,66.19,34.2c5.32,0,6.62,3.7,6.62,4.39a1.05,1.05,0,0,1-1.07,1.17c-1.25,0-1.79-1-4-1-3.19,0-5.62,2.36-5.62,6.46,0,3.73,2.6,5,4.75,5,2.56,0,3.29-1.85,4.64-1.85.58,0,1,.52,1,1.41A4.27,4.27,0,0,1,72.05,51.77Z"/></g></g></svg>